<svg width="56" height="56" viewBox="0 0 56 56" fill="none" xmlns="http://www.w3.org/2000/svg">
<circle cx="28" cy="28" r="28" fill="#100A55"/>
<path d="M24.4999 39.6668H31.4999C37.3333 39.6668 39.6666 37.3335 39.6666 31.5002V24.5002C39.6666 18.6668 37.3333 16.3335 31.4999 16.3335H24.4999C18.6666 16.3335 16.3333 18.6668 16.3333 24.5002V31.5002C16.3333 37.3335 18.6666 39.6668 24.4999 39.6668Z" stroke="white" stroke-width="3" stroke-linecap="round" stroke-linejoin="round"/>
<path d="M24.6167 27.9997V26.2731C24.6167 24.0447 26.1917 23.1464 28.1167 24.2547L29.61 25.1181L31.1034 25.9814C33.0284 27.0897 33.0284 28.9097 31.1034 30.0181L29.61 30.8814L28.1167 31.7447C26.1917 32.8531 24.6167 31.9431 24.6167 29.7264V27.9997Z" stroke="white" stroke-width="3" stroke-miterlimit="10" stroke-linecap="round" stroke-linejoin="round"/>
</svg>
